<?xml version="1.0" encoding="UTF-8" standalone="no"?>
<!-- Created with Inkscape (http://www.inkscape.org/) -->
<svg
   xmlns:dc="http://purl.org/dc/elements/1.1/"
   xmlns:cc="http://web.resource.org/cc/"
   xmlns:rdf="http://www.w3.org/1999/02/22-rdf-syntax-ns#"
   xmlns:svg="http://www.w3.org/2000/svg"
   xmlns="http://www.w3.org/2000/svg"
   xmlns:sodipodi="http://sodipodi.sourceforge.net/DTD/sodipodi-0.dtd"
   xmlns:inkscape="http://www.inkscape.org/namespaces/inkscape"
   id="svg4499"
   sodipodi:version="0.32"
   inkscape:version="0.45.1"
   width="600"
   height="400"
   version="1.0"
   sodipodi:docbase="C:\TIIKERI\Liput\Alankomaat\provinssit\Overijssel - kunnat\svg"
   sodipodi:docname="Hengelo.svg"
   inkscape:output_extension="org.inkscape.output.svg.inkscape">
  <metadata
     id="metadata4504">
    <rdf:RDF>
      <cc:Work
         rdf:about="">
        <dc:format>image/svg+xml</dc:format>
        <dc:type
           rdf:resource="http://purl.org/dc/dcmitype/StillImage" />
      </cc:Work>
    </rdf:RDF>
  </metadata>
  <defs
     id="defs4502" />
  <sodipodi:namedview
     inkscape:window-height="712"
     inkscape:window-width="1024"
     inkscape:pageshadow="2"
     inkscape:pageopacity="0.0"
     guidetolerance="10.0"
     gridtolerance="10.0"
     objecttolerance="10.0"
     borderopacity="1.0"
     bordercolor="#666666"
     pagecolor="#ffffff"
     id="base"
     inkscape:zoom="1.0534905"
     inkscape:cx="265.04531"
     inkscape:cy="213.10832"
     inkscape:window-x="-4"
     inkscape:window-y="-4"
     inkscape:current-layer="svg4499"
     width="600px"
     height="400px" />
  <g
     id="g4523"
     transform="matrix(2.2222222,0,0,2.219559,0,0.2396847)">
    <rect
       inkscape:export-ydpi="266.67001"
       inkscape:export-xdpi="266.67001"
       inkscape:export-filename="C:\TIIKERI\Liput\Alankomaat\provinssit\Overijssel - kunnat\svg\Hengelo.png"
       y="0"
       x="0"
       height="180"
       width="270"
       id="rect4521"
       style="opacity:1;fill:#0039a6;fill-opacity:1;stroke:none;stroke-opacity:1" />
    <path
       inkscape:export-ydpi="266.67001"
       inkscape:export-xdpi="266.67001"
       inkscape:export-filename="C:\TIIKERI\Liput\Alankomaat\provinssit\Overijssel - kunnat\svg\Hengelo.png"
       sodipodi:nodetypes="cccssscccccccssssssccc"
       id="path4508"
       d="M 270,152.26409 L 270,124.55447 L 263.70336,118.82061 C 244.03716,100.91215 216.0728,88.192503 190.41045,85.48318 C 171.68201,83.505909 153.94155,76.889402 135.50373,65.005087 C 124.02643,57.607255 116.16036,50.690401 107.63142,40.496213 C 94.670552,25.004767 83.0899,15.952506 63.411423,5.930713 L 53.062113,-0.10798608 L 26.445894,-0.067135446 L -1.875e-007,-0.026284809 L -1.875e-007,24.699393 L -1.875e-007,49.425069 L 5.289179,50.542498 C 19.896903,53.628632 37.920935,61.703696 53.119436,71.971247 C 61.150576,77.396793 69.323365,85.195203 82.611939,100.11278 C 94.311371,113.2464 108.81638,123.29241 128.15959,131.65857 C 139.19094,136.42975 149.30835,139.03509 164.21642,140.94356 C 178.36618,142.75495 189.74783,146.27236 202.94677,152.91287 C 217.87755,160.42468 235.87223,174.2582 238.69308,179.315 C 239.38196,180.54994 242.28201,179.97372 254.59747,179.97372 L 270,179.97372 L 270,152.26409 z "
       style="fill:#ffffff" />
  </g>
</svg>
